<svg width="784" height="784" viewBox="0 0 784 784" fill="none" xmlns="http://www.w3.org/2000/svg">
<g clip-path="url(#clip0_5_2)">
<path d="M391.868 0C228.32 0 180.489 0.168764 171.191 0.940256C137.628 3.73089 116.743 9.01681 93.9905 20.3481C76.4559 29.0575 62.6271 39.1532 48.979 53.3053C24.1233 79.1141 9.05921 110.866 3.60601 148.609C0.954729 166.932 0.183447 170.668 0.0267806 264.26C-0.0334758 295.457 0.0267806 336.515 0.0267806 391.586C0.0267806 555.046 0.20755 602.842 0.990882 612.124C3.70242 644.792 8.82421 665.345 19.6704 687.827C40.3985 730.862 79.987 763.168 126.625 775.223C142.774 779.381 160.61 781.672 183.507 782.757C193.209 783.179 292.089 783.48 391.03 783.48C489.971 783.48 588.912 783.359 598.372 782.877C624.885 781.63 640.281 779.562 657.303 775.162C680.428 769.23 701.98 758.32 720.454 743.194C738.927 728.068 753.877 709.09 764.258 687.586C774.893 665.647 780.286 644.31 782.727 613.348C783.257 606.597 783.48 498.968 783.48 391.484C783.48 283.981 783.239 176.551 782.709 169.801C780.238 138.338 774.845 117.182 763.867 94.8212C754.858 76.5163 744.856 62.8464 730.334 48.8692C704.424 24.1091 672.729 9.04092 634.954 3.59226C616.654 0.946283 613.009 0.162737 519.37 0H391.868Z" fill="url(#paint0_radial_5_2)"/>
<path d="M391.868 0C228.32 0 180.489 0.168764 171.191 0.940256C137.628 3.73089 116.743 9.01681 93.9905 20.3481C76.4559 29.0575 62.6271 39.1532 48.979 53.3053C24.1233 79.1141 9.05921 110.866 3.60601 148.609C0.954729 166.932 0.183447 170.668 0.0267806 264.26C-0.0334758 295.457 0.0267806 336.515 0.0267806 391.586C0.0267806 555.046 0.20755 602.842 0.990882 612.124C3.70242 644.792 8.82421 665.345 19.6704 687.827C40.3985 730.862 79.987 763.168 126.625 775.223C142.774 779.381 160.61 781.672 183.507 782.757C193.209 783.179 292.089 783.48 391.03 783.48C489.971 783.48 588.912 783.359 598.372 782.877C624.885 781.63 640.281 779.562 657.303 775.162C680.428 769.23 701.98 758.32 720.454 743.194C738.927 728.068 753.877 709.09 764.258 687.586C774.893 665.647 780.286 644.31 782.727 613.348C783.257 606.597 783.48 498.968 783.48 391.484C783.48 283.981 783.239 176.551 782.709 169.801C780.238 138.338 774.845 117.182 763.867 94.8212C754.858 76.5163 744.856 62.8464 730.334 48.8692C704.424 24.1091 672.729 9.04092 634.954 3.59226C616.654 0.946283 613.009 0.162737 519.37 0H391.868Z" fill="url(#paint1_radial_5_2)"/>
<path d="M391.963 70C304.529 70 293.556 70.3823 259.215 71.9451C224.942 73.5145 201.547 78.9405 181.077 86.9019C159.903 95.1247 141.941 106.124 124.046 124.026C106.138 141.92 95.1384 159.882 86.8886 181.049C78.9071 201.526 73.4743 224.927 71.9317 259.187C70.4024 293.527 70 304.506 70 391.94C70 479.374 70.389 490.313 71.9451 524.653C73.5213 558.926 78.9473 582.321 86.902 602.791C95.1317 623.965 106.131 641.926 124.033 659.821C141.921 677.729 159.883 688.755 181.044 696.978C201.527 704.939 224.929 710.365 259.195 711.935C293.536 713.498 304.502 713.88 391.93 713.88C479.371 713.88 490.31 713.498 524.651 711.935C558.925 710.365 582.346 704.939 602.83 696.978C623.997 688.755 641.932 677.729 659.82 659.821C677.728 641.926 688.728 623.965 696.978 602.797C704.892 582.321 710.325 558.92 711.935 524.66C713.478 490.32 713.88 479.374 713.88 391.94C713.88 304.506 713.478 293.534 711.935 259.193C710.325 224.92 704.892 201.526 696.978 181.056C688.728 159.882 677.728 141.92 659.82 124.026C641.912 106.118 624.004 95.118 602.81 86.9019C582.286 78.9405 558.878 73.5145 524.604 71.9451C490.264 70.3823 479.331 70 391.87 70H391.963ZM363.082 128.016C371.654 128.003 381.219 128.016 391.963 128.016C477.922 128.016 488.111 128.325 522.055 129.867C553.445 131.303 570.481 136.548 581.83 140.954C596.854 146.789 607.565 153.765 618.826 165.033C630.094 176.301 637.07 187.032 642.918 202.056C647.325 213.391 652.577 230.427 654.005 261.816C655.548 295.754 655.883 305.948 655.883 391.866C655.883 477.784 655.548 487.979 654.005 521.917C652.57 553.306 647.325 570.342 642.918 581.677C637.083 596.701 630.094 607.398 618.826 618.66C607.558 629.927 596.86 636.903 581.83 642.738C570.494 647.165 553.445 652.396 522.055 653.831C488.117 655.374 477.922 655.709 391.963 655.709C305.998 655.709 295.81 655.374 261.872 653.831C230.482 652.383 213.446 647.138 202.091 642.731C187.067 636.896 176.335 629.921 165.067 618.653C153.799 607.385 146.824 596.68 140.975 581.65C136.569 570.315 131.317 553.279 129.888 521.89C128.346 487.952 128.037 477.757 128.037 391.786C128.037 305.814 128.346 295.673 129.888 261.735C131.324 230.346 136.569 213.31 140.975 201.962C146.81 186.938 153.799 176.207 165.067 164.939C176.335 153.671 187.067 146.695 202.091 140.847C213.439 136.42 230.482 131.189 261.872 129.747C291.571 128.405 303.08 128.003 363.082 127.936V128.016ZM563.814 181.472C556.173 181.472 548.703 183.738 542.349 187.983C535.996 192.229 531.044 198.263 528.12 205.323C525.197 212.383 524.432 220.152 525.924 227.646C527.416 235.141 531.097 242.024 536.501 247.427C541.905 252.829 548.79 256.508 556.285 257.997C563.78 259.486 571.549 258.719 578.608 255.793C585.667 252.867 591.7 247.913 595.943 241.558C600.186 235.203 602.45 227.733 602.447 220.091C602.447 198.763 585.143 181.458 563.814 181.458V181.472ZM391.963 226.61C300.659 226.61 226.632 300.636 226.632 391.94C226.632 483.244 300.659 557.236 391.963 557.236C483.268 557.236 557.275 483.244 557.275 391.94C557.275 300.636 483.261 226.61 391.957 226.61H391.963ZM391.963 284.627C451.228 284.627 499.278 332.669 499.278 391.94C499.278 451.204 451.228 499.253 391.963 499.253C332.692 499.253 284.649 451.204 284.649 391.94C284.649 332.669 332.692 284.627 391.963 284.627Z" fill="white"/>
</g>
<defs>
<radialGradient id="paint0_radial_5_2" cx="0" cy="0" r="1" gradientUnits="userSpaceOnUse" gradientTransform="translate(208.113 843.824) rotate(-90) scale(776.487 722.194)">
<stop stop-color="#FFDD55"/>
<stop offset="0.1" stop-color="#FFDD55"/>
<stop offset="0.5" stop-color="#FF543E"/>
<stop offset="1" stop-color="#C837AB"/>
</radialGradient>
<radialGradient id="paint1_radial_5_2" cx="0" cy="0" r="1" gradientUnits="userSpaceOnUse" gradientTransform="translate(-131.237 56.4406) rotate(78.6806) scale(347.093 1430.73)">
<stop stop-color="#3771C8"/>
<stop offset="0.128" stop-color="#3771C8"/>
<stop offset="1" stop-color="#6600FF" stop-opacity="0"/>
</radialGradient>
<clipPath id="clip0_5_2">
<rect width="783.48" height="783.48" fill="white"/>
</clipPath>
</defs>
</svg>
