<svg xmlns="http://www.w3.org/2000/svg" xmlns:xlink="http://www.w3.org/1999/xlink" viewBox="0 0 328.6 328.6"><defs/><defs><linearGradient id="b"><stop offset="0" stop-color="#888794"/><stop offset="1" stop-color="#888794" stop-opacity="0"/></linearGradient><linearGradient id="c"><stop offset="0" stop-color="#fff"/><stop offset="1" stop-color="#8b93a1"/></linearGradient><linearGradient id="a"><stop offset="0" stop-color="#355d45"/><stop offset="1" stop-color="#0f0" stop-opacity="0"/></linearGradient><linearGradient id="j" x1="450.1" x2="436" y1="328" y2="270.1" gradientUnits="userSpaceOnUse" xlink:href="#a"/><linearGradient id="k" x1="397.2" x2="423.3" y1="290.5" y2="270.2" gradientUnits="userSpaceOnUse"><stop offset="0" stop-color="#5aa278"/><stop offset="1" stop-color="#0f0" stop-opacity="0"/></linearGradient><linearGradient id="l" x1="393.5" x2="421.3" y1="259.6" y2="260.5" gradientUnits="userSpaceOnUse" xlink:href="#a"/><linearGradient id="e" x1="358.1" x2="332.5" y1="607.1" y2="665.7" gradientTransform="translate(165.5 -197.5)" gradientUnits="userSpaceOnUse"><stop offset="0" stop-color="#8b93a1"/><stop offset="1" stop-color="#8b93a1" stop-opacity="0"/></linearGradient><linearGradient id="p" x1="477.3" x2="507.6" y1="371.7" y2="371.7" gradientTransform="translate(-7.9 23.2)" gradientUnits="userSpaceOnUse" xlink:href="#b"/><linearGradient id="q" x1="465.9" x2="481.2" y1="362.9" y2="362.9" gradientTransform="translate(-7.9 23.2)" gradientUnits="userSpaceOnUse" xlink:href="#b"/><linearGradient id="o" x1="304.8" x2="321.7" y1="596.9" y2="568.6" gradientTransform="translate(180.6 -36.9)" gradientUnits="userSpaceOnUse" xlink:href="#b"/><radialGradient id="i" cx="409.2" cy="314.7" r="52.1" gradientTransform="matrix(-1.013 .41076 -.54505 -1.3441 1014.7 518.4)" gradientUnits="userSpaceOnUse"><stop offset="0" stop-color="#fff"/><stop offset=".3" stop-color="#dae2ec"/><stop offset="1" stop-color="#597caa"/></radialGradient><radialGradient id="d" cx="427.3" cy="698" r="73.1" gradientTransform="matrix(-1.0819 .12402 -.0909 -.79304 1058 999.3)" gradientUnits="userSpaceOnUse" xlink:href="#c"/><radialGradient id="f" cx="190" cy="668.5" r="81.3" gradientTransform="matrix(-.63857 -.02433 .01652 -.43353 574 702.8)" gradientUnits="userSpaceOnUse" xlink:href="#c"/><radialGradient id="g" cx="594.1" cy="-163.5" r="2.4" gradientTransform="matrix(1.5017 .0075 -.02253 1.5077 -301.8 78.5)" gradientUnits="userSpaceOnUse"><stop offset="0" stop-color="#418dd9"/><stop offset="1" stop-color="#609fdf" stop-opacity=".7"/></radialGradient><radialGradient id="m" cx="594.1" cy="-163.5" r="2.4" gradientTransform="matrix(1 0 0 1.5079 0 83)" gradientUnits="userSpaceOnUse"><stop offset="0" stop-color="#5b9cde"/><stop offset="1" stop-color="#609fdf" stop-opacity=".7"/></radialGradient><filter id="h" width="1.3" height="1.3" y="-.2" color-interpolation-filters="sRGB"><feGaussianBlur stdDeviation=".4"/></filter><filter id="n" width="1.3" height="1.3" y="-.2" color-interpolation-filters="sRGB"><feGaussianBlur stdDeviation=".4"/></filter></defs><path fill="#fff" d="M80.8 91.8l-1.3 2a23 23 0 01-5.4 5.3A61.8 61.8 0 0055 121.6c-3.5 8.6-4.2 18-2 27a61 61 0 0010.5 20.8 67.3 67.3 0 0030.1 16.8c2.8.7 3.7 1.3 4.5 3.3.6 1.3 1 2.8 1 3.3 2.9 5.2 6.7 9.7 11.3 13.3a45 45 0 0014.8 8.2c.5 0 .8.5.5 1.3-1.7 5.4-2 12.3-2.4 43-.4 28.6-.6 34.4-1.6 35.4a52.2 52.2 0 00-4.8 14.6c0 2 1.3 2.7 5 2.7 2 0 2.6.4 2.8 1.7.2 1.4 1.7 2.3 8.2 5a50.3 50.3 0 0025.1 5c4-.9 4.1-.9 6.7 1.6 1.5 1.3 3.4 2.8 4.2 3.3 1 .5 3.5.8 6.8.5l11.4-.8c12.4-.8 32.7-7.4 51.5-16.8l8.3-4.2 4.6 1.6c6.8 2.4 11 2.7 15.7 1.4 4.3-1.3 9.8-5.2 9.8-7 0-1.4-1-1.4-5.7 0-7.5 2.2-15.3 1.2-18.7-2.8-1.7-1.9-2-4.5-2.9-20.7-.4-7.5-1.3-16.4-1.9-19.8a64.7 64.7 0 00-27.2-43.7l-4.4-3 4.5-3.4c2.5-1.8 4.8-3.9 5-4.5.3-.7.3-3 0-5-.6-4-4-9.4-14.4-22.2-15.6-19.3-16-19.6-23.3-19.3-4.5.3-5 .2-5.5-1-1.9-6-20-18-28.9-19.2-3.5-.5-4.4-.2-8 1.8-2.2 1.3-5 3.2-6.2 4.2-2.8 2.6-4.7 3.1-7 1.6s-3.4-.8-1.4.8c1.8 1.3.3 1.5-2 .3-1.9-1-3 0-1.2 1 1.1.6-.9 4.1-3.2 6.1a7.2 7.2 0 00-6.2 0c-1.3.7-1.7 1.4-2.7 2.3-1.8 1.7.1 4.1-.6 2.8-.7-1 1.6-4.6 3.1-4.6.6 0 .8-.4.5-.9-.5-1-3.8 2.1-4.4 4.1-.5 1.4-.6 1.4-2.6 0a9.7 9.7 0 00-3.3-1.6c-1.6 0-4.9 4-5.5 6.7s-1.5 3.1-5.7 2.6c-6-.7-11.2-3.8-18.6-11.2-15.3-15.4-17-29.5-5-42.2a28 28 0 0115-9 46 46 0 008-2.4c2.4-1.2 2.7-1 3.7-3.5 0 0-9.5 1-19.4-5z"/><g transform="translate(-318.6 -243.3)"><g stroke="#000"><path fill="url(#d)" d="M515.6 567a180 180 0 0040.3-15c9.8-4.8 9.9-4.8 16-2.4 4.5 1.7 12.6 1.8 15.6.2 2-1.2 2-1.2-3.7-.8-9.3.6-14.6-2.2-16.3-8.6-.4-1.7-1-8-1.2-14-1-22-4-35.8-10.4-46.5-5.8-10-20-22.8-23.1-21.1-.8.4-5.3 3.6-10.1 7.2a123 123 0 01-13.3 8.8 30 30 0 01-17.9 3c-3.6-.8-3.8-1-7.3-7.3-3.1-5.6-4-6.7-6.8-8-3-1.3-3.2-1.7-3.2-4 0-1.5-.4-3.4-.8-4.1-.7-1.3-1.1-1.2-6.4 1.5-6 3-14 5-18 4.3-3.3-.5-3.7 1.1-4.6 19.6l-.8 16 9.3 11.8-.5 14.9c-.4 13.2-.6 15.4-2.2 19.4-2.2 5.5-2.3 5.7 0 5.7.9 0 2 .4 2.4.8.6.5 1.5.4 3-.4 2-1 2.4-1 3.7 0 1.9 1.4 2.5 1.6 5.2 2.2 2.9.7 4.4 3.4 4.6 8.4l.1 4.3 4.7-.3c2.6-.1 5-.5 5.2-.7.3-.3 0-2.3-.8-4.5-2.7-8-.1-20.5 5.3-25.9a9 9 0 002.5-5.1c.4-3.4 2.2-3.8 2-.4-.2 1.6 0 2 1 1.5a25 25 0 014.4-1c1.7-.2 4-1 5-1.8a58.7 58.7 0 0117.1-4.4 4 4 0 002.7-1c2.3-2.2 6.7-5.2 6.7-4.5 0 .4-1.3 1.6-2.9 2.7l-2.8 2h3.2c2.2 0 3.2.4 3.2 1 0 .8-2 1.4-7 2-8.5 1.2-10.4 1.6-10.4 2.4 0 .3 1.1.8 2.6 1 3.6.7 4.7 2.3 3.6 5.2-.7 2-.6 2.6.6 4.2 2 2.4.4 6.7-2.2 6-1-.2-1.2.8-1.2 7 0 6.4-.2 7.7-2 11.1-1.2 2.2-3.3 5-4.8 6.3l-2.7 2.4h4.1a55 55 0 009.3-1.1z"/><path fill="#8b93a1" d="M448 541.9c1.8-4.4 2-6 2.2-18.8l.3-14-2.5-3.6a24 24 0 00-3.3-4c-.6-.4-.8 4.5-.6 17.2.2 17.1.2 17.8-1.4 20.4-2 3-2 3.8-.6 3.8.6 0 1.7.8 2.5 1.8l1.5 2 2-4.8z"/><path fill="url(#e)" d="M505.2 475c3.5-1.1 15.7-9 21.8-14.2 2.1-1.8 6.5-5.3 9.7-7.7l5.8-4.5v-3.7c0-3.2-.4-4.1-2.8-6.8a348 348 0 00-28.1-25.5c-5.5-3.9-7.3-4-14.4-1l-4 1.8v5c0 9.8-4.3 18.3-13.7 27.5l-5.3 5 1.2 2.7c.6 1.5 1.1 3.6 1.1 4.7 0 1.4.7 2.2 2.8 3.2 2 1 3.5 2.7 6 7.1 1.9 3.2 3.8 6.2 4.3 6.6 2.2 1.8 9.2 1.7 15.6-.3z"/><path fill="url(#f)" d="M399.4 336.8s.3.5 0 1.5a32 32 0 01-6.4 6c-14.2 10.8-20.6 22.2-20.7 36.4 0 3.7.5 8.6 1.3 11.4 1.8 7 6.7 16.2 11 20.5 8.5 8.6 25.2 15.5 43.8 18.1l4 .6-.5-2.1c-.3-1.7-.2-2.2.8-2.2.6 0 1.2.5 1.2 1 0 1.8 3.6 5 5.6 5 1.3 0 2 .5 2 1.3 0 1.2-.8 1.2-6.3-.1-2.2-.6-14.2 2.4-14.2 3.5a44.7 44.7 0 0024 18c4.9 1.2 10.4 1 15.6-.6 9.3-3 23.3-15.1 27.5-24a27 27 0 003-14.4c-.4-2.2-.7-2.6-2-2.2-2.5.8-1.5-1 1.4-2.6 5-2.5 12.6-5.4 14.3-5.4 2.3 0 9.2 5 19.9 14.6 9.3 8.4 11.3 9.7 6.8 4.4l-7.8-9.2c-2.9-3.4-6.9-8-8.8-10l-3.5-3.6-4.4.5a49 49 0 00-18 5.3 36.5 36.5 0 01-5.8 2.6c-1.7 0-.7-1.3 1.8-2.5 1.5-.7 2.7-1.6 2.7-2 0-1.5-4.6-6.8-8.2-9.4a29.6 29.6 0 00-23.5-5.8c-4.3.8-4.7 1-4.2 2.5.5 1.6.4 1.6-1.2.2-1.6-1.5-1.6-1.5-3.7 0-1.4 1.1-2 2.2-1.8 3.3.5 3.7-3.5 7-9.7 8-1.9.3-4.2 1-5.1 1.6-1 .6-2.9 1-4.3 1-1.7 0-3.2.6-4.1 1.6-.8.8-2 1.3-2.6 1-.8-.2-1.3.2-1.7 1.6-.6 2.6-2 2.5-1.5-.2.4-1.9.3-2-.7-.7-1.3 1.6-2.2 1.7-1.9 0 .2-.7-.9-1.5-3.2-2.4a42 42 0 01-15.5-11.6A46.4 46.4 0 01383 379a27.4 27.4 0 012-18c4.2-7.6 14.2-16 20.4-17 5.3-.9 8.8-2 8.4-2.6-.2-.4-2-.9-4-1.1-2.1-.3-8.1-1.3-9-2.1-1.2-1-1.4-1.4-1.4-1.4zm61 77.5h.8c4.3 3-.4 10-4.8 7.7-.3-.1-1 .2-1.3 0-.4-.5-1.3-.5-1.6-1-1-2.1 2.5-6.3 4.3-6.3.7 0 1.6-.4 2.5-.4z"/></g><ellipse style="isolation:auto;mix-blend-mode:normal" cx="594.1" cy="-163.5" fill="url(#g)" color="#000" filter="url(#h)" rx="2.4" ry="5" transform="matrix(.53453 .84515 -.85559 .51766 -20.5 -17.5)"/><path d="M487.4 571.2c-.8-.5-2.7-2-4.2-3.3-2.6-2.5-2.7-2.5-6.7-1.7a50.3 50.3 0 01-25.1-5c-6.5-2.6-8-3.5-8.2-4.9-.2-1.3-.8-1.7-2.8-1.7-3.7 0-5-.7-5-2.7 0-2.5 3.5-13 4.8-14.6 1-1 1.2-6.8 1.6-35.4.3-30.7.7-37.6 2.4-43 .3-.8 0-1.3-.5-1.3a45 45 0 01-14.8-8.2 45.8 45.8 0 01-11.3-13.3c0-.5-.4-2-1-3.3-.8-2-1.7-2.6-4.5-3.3-11-2.7-24-10-30.1-16.8a61 61 0 01-10.6-20.8 44.6 44.6 0 012.1-27c3-7.2 11.7-17.4 19.2-22.5a23 23 0 005.4-5.3l1.3-2c9.9 6 19.4 5.1 19.4 5.1-1 2.5-1.3 2.3-3.8 3.5a46 46 0 01-8 2.4 28 28 0 00-15 9c-12 12.7-10.2 26.8 5.1 42.2 7.4 7.4 12.5 10.5 18.6 11.2 4.2.5 5.1.1 5.7-2.6s3.9-6.7 5.5-6.7c.6 0 2 .7 3.3 1.5 2 1.5 2.1 1.5 2.6.1.6-2 4-5 4.5-4 .3.5 0 .8-.6.8-1.5 0-3.8 3.5-3.1 4.6.7 1.3 6.2.5 8-1.2 1-.9 1.4-2 1.2-3.2s.4-2.3 2.2-4c2.3-2 2.4-2.2 1.3-2.9-1.9-1-.7-1.9 1.2-.9 2.3 1.2 3.8 1 2-.3-2-1.6-.9-2.3 1.4-.8s4.2 1 7-1.6c1.2-1 4-2.9 6.2-4.2 3.6-2 4.5-2.3 8-1.8 8.8 1.2 27 13.2 28.9 19.2.4 1.2 1 1.3 5.5 1 7.2-.3 7.7 0 23.3 19.3 10.4 12.8 13.8 18.2 14.4 22.2.3 2 .3 4.3 0 5-.2.6-2.5 2.7-5 4.5l-4.5 3.4 4.4 3a64.7 64.7 0 0127.2 43.7c.6 3.4 1.5 12.3 1.9 19.8.8 16.2 1.2 18.8 2.9 20.7 3.4 4 11.2 5 18.7 2.8 4.7-1.4 5.7-1.4 5.7 0 0 1.8-5.5 5.7-9.8 7-4.8 1.3-8.9 1-15.7-1.4l-4.6-1.6-8.3 4.2c-18.8 9.4-39.1 16-51.5 16.8l-11.4.8c-3.3.3-5.8 0-6.8-.5zm10.5-3.9c1.9-.5 4.4-2.2 6.3-4.1 11.1-11.4 4.7-34.4-9.6-34.4-5.5 0-10 3.5-13 10.3a21 21 0 00-1.8 10.2c0 9.3 3 15.2 9.1 17.9 2.9 1.3 5 1.3 9 .1zm17.7-.1a180 180 0 0040.2-15c9.9-4.8 10-4.8 16.2-2.5 4.4 1.7 12.5 1.9 15.4.3 2.2-1.2 2-1.2-3.6-.9-9.3.6-14.6-2.1-16.3-8.5-.4-1.7-1-8-1.2-14-1-22-4-35.8-10.4-46.6-5.8-9.9-20-22.7-23.1-21-.8.4-5.3 3.6-10.1 7.2a123 123 0 01-13.3 8.8 31 31 0 01-18 3c-3.6-.8-3.7-1-7.2-7.3-3.1-5.6-4-6.7-6.8-8-3-1.3-3.3-1.7-3.3-4 0-1.6-.3-3.4-.7-4.1-.7-1.3-1.1-1.2-6.5 1.4-6 3-14 5-17.9 4.4-3.3-.5-3.7 1.1-4.7 19.6l-.8 16 9.4 11.8-.5 14.9c-.4 13.2-.7 15.4-2.3 19.4-2.2 5.5-2.2 5.7 0 5.7 1 0 2 .4 2.5.8.6.5 1.5.4 3-.4 2-1 2.4-1 3.7 0a10 10 0 005.2 2.2c2.9.6 4.4 3.4 4.6 8.4l.1 4.3 4.7-.3c2.6-.1 5-.5 5.2-.8.3-.2-.1-2.2-.8-4.4-2.7-8-.1-20.5 5.3-25.9a9 9 0 002.5-5.1c.4-3.5 2.2-3.8 2-.5-.2 1.7 0 2 1 1.6a25 25 0 014.4-1c1.6-.2 4-1 5-1.9a58.7 58.7 0 0117-4.3c1 0 2.2-.4 2.7-1 2.3-2.2 6.7-5.2 6.7-4.5 0 .4-1.2 1.6-2.8 2.7l-2.8 2h3.2c2.2 0 3.2.4 3.2 1 0 .8-2 1.4-7 2-8.6 1.2-10.4 1.6-10.4 2.3 0 .4 1.1.9 2.5 1.1 3.7.7 4.8 2.3 3.7 5.2-.8 2-.7 2.6.6 4.1 2 2.5.4 6.8-2.2 6.1-1-.2-1.2.8-1.2 7 0 6.4-.3 7.7-2 11.1a29 29 0 01-4.8 6.3l-2.8 2.4h4.2a55 55 0 009.3-1.1zm-50.9-28.6c-.9-.5-3.5-.7-7-.4-3 .2-5.6.3-5.6 0 0-.6 3.5-2 6.8-2.6s3.2-.6-1-.3c-4.3.3-4.5.3-3.1-.8 1.9-1.4 8.4-1.2 8.1.2 0 .6.7 1.4 1.7 1.9 1 .4 2 1.3 2 1.8 0 1.2 0 1.2-1.9.2zm52.4-10.9c-1.6-1.9-2.6-3.4-2.4-3.4 1 0 5.8 5.3 5.6 6-.2.5-1.6-.7-3.2-2.6zm-49 31.9c0-4.8-1.9-8-4.7-8-1 0-1.4 1-1.8 4.3-.6 4.9.4 6.3 4.3 6.3 2 0 2.2-.2 2.2-2.6zm-8.1-2.7c.5-4.7-.4-7.6-2.6-7.6-2.9 0-4.4 9-1.7 10.6 2.9 1.6 3.8 1 4.3-3zm-7.3-2.4c.3-4-1-5.6-4-4.9-2.1.6-3.8 3.5-3.1 5.4.5 1.3 4.9 3.5 6.2 3.1.4 0 .8-1.7 1-3.6zm-9.2-4.8c.7-1.7-.3-5-1.7-5.5-1.6-.6-4 2.4-4 4.8 0 1.6.3 1.8 2.6 1.8 1.7 0 2.8-.4 3.1-1.1zm4.3-8.2c1.8-4.4 2-5.9 2.2-18.8l.2-14-2.4-3.5a24 24 0 00-3.3-4c-.6-.5-.8 4.4-.6 17.1.2 17.2.2 17.8-1.5 20.4-2 3.1-2 3.8-.5 3.8.6 0 1.7.8 2.4 1.9l1.5 1.9zm66.3-3.3c.5-1.3-1.3-2.8-2.3-1.9-.7.8.1 3.2 1.1 3.2.4 0 1-.6 1.2-1.3zm-2.5-6c1-2.4.5-3.4-1.7-3.4-3 0-4.2 1.5-2.7 3.2 1.6 1.7 3.8 1.8 4.4.2zm-6.6-5.4c.2-.6-.3-1-1.2-1-1.6 0-2.6 1-1.8 1.8.7.8 2.7.2 3-.8zm0-52.2c3.6-1 15.8-9 21.9-14.2 2-1.8 6.4-5.2 9.6-7.7l5.9-4.5v-3.6c0-3.2-.4-4.1-2.9-6.9-4.6-5.2-23-21.7-28-25.4-5.5-4-7.3-4-14.4-1l-4 1.7v5c0 9.9-4.3 18.4-13.8 27.5l-5.2 5 1.2 2.8c.6 1.5 1.1 3.6 1.1 4.6 0 1.5.7 2.3 2.7 3.3 2.1 1 3.6 2.7 6.1 7 1.9 3.3 3.8 6.2 4.3 6.7 2.2 1.7 9.2 1.6 15.6-.3zm-44.4-19.3c9.4-2.9 23.3-15 27.6-24a27 27 0 003-14.4c-.4-2.2-.7-2.6-2-2.2-2.5.8-1.5-1 1.4-2.5 5-2.6 12.6-5.4 14.2-5.4 2.4 0 9.3 5 20 14.5 9.3 8.4 11.3 9.7 6.8 4.4l-7.8-9.2c-2.9-3.5-6.9-8-8.8-10l-3.5-3.5-4.5.4a49 49 0 00-17.8 5.3 36.5 36.5 0 01-6 2.6c-1.6 0-.6-1.3 2-2.5 1.4-.7 2.6-1.6 2.6-2 0-1.4-4.7-6.8-8.2-9.4a29.6 29.6 0 00-23.5-5.8c-4.4.8-4.7 1-4.3 2.5.5 1.6.5 1.6-1.1.2-1.6-1.5-1.7-1.4-3.7 0-1.4 1.1-2 2.2-1.8 3.3.5 3.7-3.5 7-9.7 8-2 .3-4.2 1-5.1 1.6-1 .6-3 1-4.4 1-1.7 0-3.1.6-4 1.6-.9.9-2 1.3-2.6 1.1-.8-.3-1.4.2-1.7 1.5-.6 2.6-2.1 2.5-1.5-.2.4-1.8.3-2-.7-.7-1.3 1.6-2.2 1.7-1.9.1.2-.8-.9-1.6-3.2-2.5a42 42 0 01-15.6-11.6 46.4 46.4 0 01-11.7-18.3 27.4 27.4 0 012-18c4.2-7.6 14.1-16 20.4-17 5.2-.9 8.8-2 8.4-2.6-.2-.3-2-.8-4.1-1.1-2-.3-8-1.2-9-2-2.2-2-.8-2-1.4 0-.2.8-3.1 3.5-6.3 6-14.2 10.8-20.7 22.2-20.7 36.5 0 3.7.5 8.5 1.2 11.3 1.8 7 6.8 16.2 11.1 20.5 8.5 8.6 25.1 15.5 43.8 18.2l4 .5-.5-2.1c-.3-1.7-.2-2.2.7-2.2.7 0 1.2.5 1.2 1 0 1.9 3.7 5 5.7 5 1.3 0 2 .5 2 1.3 0 1.3-.8 1.2-6.3-.1-2.3-.6-14.3 2.5-14.3 3.6a44.7 44.7 0 0024 18c5 1.1 10.5.9 15.6-.7zm-7-34.3c.5-.2 3.5 1 4 1.2.6.2 0 .8-1 .4-2.6-1.5-3.6-1.4-3-1.6zm-.2.4c-1-1-.4-3.8 1.2-5.4 2-1.9 6.6-3.1 6.6-1.8 0 .5-.4.7-1 .4-2.9-1-7.7 4-6.2 6.5.6 1 .2 1-.6.3zm8.3-1c1.1-1.2 1.3-2 1.4-1.9.5.3-2.7 3.4-3.5 3.4-.3 0 1-.4 2.1-1.5zm5.7-7.1c-.5-1.2-.8-2.6-.6-3 .4-1.3 2.2 2.4 1.8 3.9-.2 1-.5.7-1.2-1zm1.9-1.8l-1-2.5c-.3-.8 0-.7 1.2.3 1.6 1.5 2.2 3.5 1 3.5-.4 0-1-.6-1.2-1.3zM429 405c2.4-1.1 2.4-2 0-3-2.3-1.1-4-.3-5 2.2-.5 1.5-.4 1.7 1.2 1.7 1 0 2.7-.4 3.8-.9zm65.7-1.5c2.9-1 4.5-2 4.5-2.8 0-3.3-18-16-22.6-16-1.6 0-6.4 2.9-6.8 4.1-.1.4 1.3 1.4 3.3 2.2a40.7 40.7 0 0116.8 14.1zM469 386.3l3.1-3h-2.6c-1.6 0-4 .8-6.3 2.4l-3.8 2.4 3 .5 3.3.6a31 31 0 003.3-3zm-29 15.1c1-1.2 1.2-3.5 0-4-.3-.2-.3-.3.3-.2 1.5.3 1.5 3.1 0 4.3-1.1.9-1.2.9-.4 0zm-.8-5.8c.5-.2 1.3-.2 1.9 0s0 .4-1 .4-1.5-.2-1-.4z"/><g stroke="#000"><path fill="url(#i)" stroke-width="2" d="M399.9 338.6l-1.8-1.2c-1-.6-4.2-3.6-7.1-6.7a50.6 50.6 0 01-.6-70c14-14.8 33.5-20 52.6-14a51.6 51.6 0 0135.7 48.8 50.6 50.6 0 01-52 50.8l-17.5-2.8z"/><path fill="none" d="M421.8 302.7c0-.6.5-1.1 1.1-1.1s1.2.5 1.2 1.1-.5 1.2-1.2 1.2-1-.5-1-1.2z"/><path fill="url(#j)" stroke-width="2" d="M453 331c-.7 0 4.3-1.3 5.7-5 1-3 4.9-7 5.6-10.5.2-1.3 2.4-4.6 1.5-5.5-.7-.7-3.5 0-5.2 0-1.7-.2-2.3-1-2.4-1.6v-1c0-.3-.8-.5-1.7-.5-1 0-2.2-.4-2.7-.9-1-1-16.1-1.6-20.8-1l-2.9.5.5 4c.4 3 1 4.4 3 6.3 1.6 1.5 3 2.3 3.6 2-.5 1.2-.7 1.4.6 1.7 1.2 1.5 4.7 6.8 4.3 5.2 0 1.4 0 3.3-.5 5-.5 1.6-8.9 9.7-8.3 10 .4.2 4.2-1 5-1.2 1-.3 1.9-.6 3.6-1.8.7-.4 1-1.4 1.8-2 .9-.5 2.6-.7 3.7-.9 1.2-.2 2.8-.2 3.5-.6 1.3-1 1.2-2.5 2-2.3z"/><path fill="url(#k)" stroke-width="2" d="M416.8 308.5c.2-.4-1-1.5-2.6-2.6-2.2-1.5-3-2.7-3.5-4.8-.4-2.4-.2-3 1.2-4.2 1-.8 2.6-1.4 3.6-1.4 2.5 0 5.3-3 7.7-8 3.3-7 3.3-7 1.2-8.9-1.1-.9-2.5-2.6-3-3.7-1-1.9-1-2.4 0-4.5 2-3.6 1.3-5.5-2.2-6.2l-5.4-.8c-2.1-.1-2.2 0-2.2 2.8 0 2.9-1.2 4.3-3.5 4.3-2 0-4.4-2.2-4.9-4.6-.2-1.2-.7-2.2-1-2.2l-6.5 1c-5 1-6.4 1.5-7.9 3.2l-1.7 2 2.7 2.5c2.5 2.4 2.7 2.7 2.2 5.8-.3 1.8-.8 3.7-1.2 4.2-.5.6-.2 2.5.6 5.3 1.6 5.1 8.5 14.4 11.2 15 1 .3 2.2 1.4 2.7 2.4.4 1 1 1.8 1.4 1.8l4.4 1.1c4.5 1.3 6.2 1.4 6.7.5z"/><path fill="none" d="M461.2 308.4c0-.4-.5-.7-1.1-.7-.7 0-1 .3-.8.7.3.4.8.8 1.2.8s.7-.4.7-.8z"/><path style="isolation:auto;mix-blend-mode:normal" fill="url(#l)" stroke-width="2" d="M405.8 255.2a7 7 0 014.8-1.3c2.6.3 2.7.3 1.5-1.4-.6-1-1.6-1.7-2.2-1.7-1.9 0-8.6 4-8.6 5 0 1.5 2 1.3 4.5-.6z" color="#000"/><path fill="#55a871" fill-opacity=".9" d="M421.1 248.3c-.6-.6-.8-.5-.8.3 0 1.5 1 2.5 1.4 1.4a2 2 0 00-.6-1.7z"/></g><ellipse style="isolation:auto;mix-blend-mode:normal" cx="594.1" cy="-163.5" fill="url(#m)" color="#000" filter="url(#n)" rx="2.4" ry="3.7" transform="matrix(.53453 .84515 -.85559 .51766 0 .3)"/><g stroke="#000"><path fill="none" d="M461.2 414.5c3.7 3-4.4 6.1-6.8 6.6m.2.9c3.8.8 10.2-1.2 7.8-5.5m-25.3-19.7c2.4-1 4.1-1 6 .3m-4.1-1c1 .2.8.8 1.2 1.2m.1 3.7c-.4.8-1 1.4-1.4 2"/><path fill="url(#o)" d="M498 567.7c1.9-.6 4.4-2.3 6.3-4.2 11-11.4 4.7-34.3-9.6-34.3-5.5 0-10 3.5-13 10.2a21 21 0 00-1.8 10.3c0 9.3 3 15 9 17.8 3 1.3 5.2 1.4 9.1.2z"/><path fill="#888794" d="M428.4 405c2.5-1 2.5-1.9 0-3-2.3-1-4-.3-5 2.3-.5 1.4-.3 1.6 1.3 1.6 1 0 2.7-.4 3.8-.8z"/><path fill="url(#p)" d="M494.8 403.5c2.9-1 4.5-2 4.5-2.8 0-3.3-17.9-16-22.6-16-1.6 0-6.4 2.9-6.8 4.1 0 .5 1.4 1.4 3.3 2.2a40.7 40.7 0 0116.8 14.1z"/><path fill="url(#q)" d="M469 386.2l3.1-3h-2.6c-1.6 0-4 .9-6.3 2.4l-3.7 2.4 3 .5 3.2.6c.1 0 1.6-1.2 3.3-3z"/><path fill="none" stroke-width="2" d="M416.7 308.5l5.5-1.9s2.4-.7 3.3-.7 2.2.2 3 0a17 17 0 012.6-.4"/></g></g></svg>
