<svg width="500" height="500" viewBox="0 0 500 500" fill="none" xmlns="http://www.w3.org/2000/svg">
<path d="M458.825 336.316C486.356 223.761 420.037 91.9102 307.335 22C357.38 91.7703 377.452 174.544 359.957 248.369C358.736 254.801 356.159 261.372 353.718 267.804C332.154 252.424 232.201 188.945 112.04 63.5266C108.243 59.6117 177.138 164.477 253.494 247.111C217.147 225.159 115.702 150.075 51.8239 89.3934C59.2831 102.397 69.3191 115.26 79.3551 129.522C133.197 200.69 202.093 285.981 286.043 351.976C227.183 389.448 144.589 392.104 60.6393 351.976C39.3467 342.888 21.8514 330.024 3 315.762C38.1261 372.669 91.968 423.144 157.066 451.528C234.778 486.483 314.252 486.763 378.673 446.355C406.204 432.093 461.266 416.573 491.374 476.136C497.613 492.915 512.667 415.315 456.248 344.286C457.605 341.489 457.605 338.973 458.825 336.316Z" fill="url(#paint0_linear_2_2)"/>
<defs>
<linearGradient id="paint0_linear_2_2" x1="250.509" y1="22.0516" x2="250.509" y2="478.321" gradientUnits="userSpaceOnUse">
<stop stop-color="#F88A36"/>
<stop offset="1" stop-color="#FD2020"/>
</linearGradient>
</defs>
</svg>
